<mxfile host="app.diagrams.net" modified="2023-07-18T11:50:09.768Z" agent="Mozilla/5.0 (Windows NT 10.0; Win64; x64) AppleWebKit/537.36 (KHTML, like Gecko) Chrome/114.0.0.0 Safari/537.36" etag="UTib_t6GY73MOMqPXPUB" version="21.6.2" type="device" pages="3">
  <diagram id="C5RBs43oDa-KdzZeNtuy" name="GameFlowChart">
    <mxGraphModel dx="1434" dy="884" grid="1" gridSize="10" guides="1" tooltips="1" connect="1" arrows="1" fold="1" page="1" pageScale="1" pageWidth="827" pageHeight="1169" math="0" shadow="0">
      <root>
        <mxCell id="WIyWlLk6GJQsqaUBKTNV-0" />
        <mxCell id="WIyWlLk6GJQsqaUBKTNV-1" parent="WIyWlLk6GJQsqaUBKTNV-0" />
        <mxCell id="zxdTFHH6Y_w0BkijJiQj-0" style="edgeStyle=orthogonalEdgeStyle;rounded=0;orthogonalLoop=1;jettySize=auto;html=1;entryX=0.5;entryY=0;entryDx=0;entryDy=0;" parent="WIyWlLk6GJQsqaUBKTNV-1" source="zxdTFHH6Y_w0BkijJiQj-21" target="8qk1VBI9aKeeCoUdM-6X-0" edge="1">
          <mxGeometry relative="1" as="geometry" />
        </mxCell>
        <mxCell id="WIyWlLk6GJQsqaUBKTNV-3" value="进入关卡" style="rounded=1;whiteSpace=wrap;html=1;fontSize=12;glass=0;strokeWidth=1;shadow=0;" parent="WIyWlLk6GJQsqaUBKTNV-1" vertex="1">
          <mxGeometry x="98.48000000000002" y="70" width="90" height="40" as="geometry" />
        </mxCell>
        <mxCell id="zxdTFHH6Y_w0BkijJiQj-3" style="edgeStyle=orthogonalEdgeStyle;rounded=0;orthogonalLoop=1;jettySize=auto;html=1;entryX=0.5;entryY=0;entryDx=0;entryDy=0;exitX=0.5;exitY=1;exitDx=0;exitDy=0;" parent="WIyWlLk6GJQsqaUBKTNV-1" source="WIyWlLk6GJQsqaUBKTNV-6" target="zxdTFHH6Y_w0BkijJiQj-5" edge="1">
          <mxGeometry relative="1" as="geometry">
            <mxPoint x="213.48000000000002" y="160" as="sourcePoint" />
            <mxPoint x="265.98000000000025" y="390" as="targetPoint" />
          </mxGeometry>
        </mxCell>
        <mxCell id="zxdTFHH6Y_w0BkijJiQj-4" value="是" style="edgeLabel;html=1;align=center;verticalAlign=middle;resizable=0;points=[];" parent="zxdTFHH6Y_w0BkijJiQj-3" vertex="1" connectable="0">
          <mxGeometry relative="1" as="geometry">
            <mxPoint as="offset" />
          </mxGeometry>
        </mxCell>
        <mxCell id="WIyWlLk6GJQsqaUBKTNV-6" value="门开关是否触发？" style="rhombus;whiteSpace=wrap;html=1;shadow=0;fontFamily=Helvetica;fontSize=12;align=center;strokeWidth=1;spacing=6;spacingTop=-4;" parent="WIyWlLk6GJQsqaUBKTNV-1" vertex="1">
          <mxGeometry x="265.98" y="290" width="165" height="60" as="geometry" />
        </mxCell>
        <mxCell id="zxdTFHH6Y_w0BkijJiQj-1" style="edgeStyle=orthogonalEdgeStyle;rounded=0;orthogonalLoop=1;jettySize=auto;html=1;exitX=0.5;exitY=1;exitDx=0;exitDy=0;entryX=0.5;entryY=0;entryDx=0;entryDy=0;" parent="WIyWlLk6GJQsqaUBKTNV-1" source="8qk1VBI9aKeeCoUdM-6X-0" target="zxdTFHH6Y_w0BkijJiQj-14" edge="1">
          <mxGeometry relative="1" as="geometry">
            <mxPoint x="143.48000000000002" y="360" as="targetPoint" />
          </mxGeometry>
        </mxCell>
        <mxCell id="zxdTFHH6Y_w0BkijJiQj-16" style="edgeStyle=orthogonalEdgeStyle;rounded=0;orthogonalLoop=1;jettySize=auto;html=1;entryX=0.5;entryY=0;entryDx=0;entryDy=0;" parent="WIyWlLk6GJQsqaUBKTNV-1" source="8qk1VBI9aKeeCoUdM-6X-0" target="zxdTFHH6Y_w0BkijJiQj-10" edge="1">
          <mxGeometry relative="1" as="geometry" />
        </mxCell>
        <mxCell id="zxdTFHH6Y_w0BkijJiQj-29" style="edgeStyle=orthogonalEdgeStyle;rounded=0;orthogonalLoop=1;jettySize=auto;html=1;entryX=0.5;entryY=0;entryDx=0;entryDy=0;" parent="WIyWlLk6GJQsqaUBKTNV-1" source="8qk1VBI9aKeeCoUdM-6X-0" target="zxdTFHH6Y_w0BkijJiQj-26" edge="1">
          <mxGeometry relative="1" as="geometry" />
        </mxCell>
        <mxCell id="8qk1VBI9aKeeCoUdM-6X-0" value="解密" style="rounded=0;whiteSpace=wrap;html=1;" parent="WIyWlLk6GJQsqaUBKTNV-1" vertex="1">
          <mxGeometry x="103.48000000000002" y="230" width="80" height="40" as="geometry" />
        </mxCell>
        <mxCell id="zxdTFHH6Y_w0BkijJiQj-5" value="开门" style="rounded=0;whiteSpace=wrap;html=1;" parent="WIyWlLk6GJQsqaUBKTNV-1" vertex="1">
          <mxGeometry x="308.48" y="390" width="80" height="40" as="geometry" />
        </mxCell>
        <mxCell id="zxdTFHH6Y_w0BkijJiQj-10" value="触发" style="swimlane;startSize=0;verticalAlign=top;labelPosition=center;verticalLabelPosition=bottom;align=center;fontStyle=0;fontSize=11;" parent="WIyWlLk6GJQsqaUBKTNV-1" vertex="1">
          <mxGeometry x="248.48000000000002" y="270" width="200" height="180" as="geometry" />
        </mxCell>
        <mxCell id="zxdTFHH6Y_w0BkijJiQj-19" style="edgeStyle=orthogonalEdgeStyle;rounded=0;orthogonalLoop=1;jettySize=auto;html=1;entryX=0;entryY=0.5;entryDx=0;entryDy=0;exitX=0;exitY=0.5;exitDx=0;exitDy=0;" parent="WIyWlLk6GJQsqaUBKTNV-1" source="zxdTFHH6Y_w0BkijJiQj-14" target="8qk1VBI9aKeeCoUdM-6X-0" edge="1">
          <mxGeometry relative="1" as="geometry" />
        </mxCell>
        <mxCell id="zxdTFHH6Y_w0BkijJiQj-20" value="否" style="edgeLabel;html=1;align=center;verticalAlign=middle;resizable=0;points=[];" parent="zxdTFHH6Y_w0BkijJiQj-19" vertex="1" connectable="0">
          <mxGeometry relative="1" as="geometry">
            <mxPoint as="offset" />
          </mxGeometry>
        </mxCell>
        <mxCell id="zxdTFHH6Y_w0BkijJiQj-14" value="玩家是否进门？" style="rhombus;whiteSpace=wrap;html=1;shadow=0;fontFamily=Helvetica;fontSize=12;align=center;strokeWidth=1;spacing=6;spacingTop=-4;" parent="WIyWlLk6GJQsqaUBKTNV-1" vertex="1">
          <mxGeometry x="60.98000000000002" y="310" width="165" height="60" as="geometry" />
        </mxCell>
        <mxCell id="zxdTFHH6Y_w0BkijJiQj-22" value="" style="edgeStyle=orthogonalEdgeStyle;rounded=0;orthogonalLoop=1;jettySize=auto;html=1;entryX=0.5;entryY=0;entryDx=0;entryDy=0;" parent="WIyWlLk6GJQsqaUBKTNV-1" source="WIyWlLk6GJQsqaUBKTNV-3" target="zxdTFHH6Y_w0BkijJiQj-21" edge="1">
          <mxGeometry relative="1" as="geometry">
            <mxPoint x="143.48000000000002" y="110" as="sourcePoint" />
            <mxPoint x="143.48000000000002" y="270" as="targetPoint" />
          </mxGeometry>
        </mxCell>
        <mxCell id="zxdTFHH6Y_w0BkijJiQj-21" value="保存" style="rounded=0;whiteSpace=wrap;html=1;" parent="WIyWlLk6GJQsqaUBKTNV-1" vertex="1">
          <mxGeometry x="103.48000000000002" y="150" width="80" height="40" as="geometry" />
        </mxCell>
        <mxCell id="zxdTFHH6Y_w0BkijJiQj-23" value="" style="edgeStyle=orthogonalEdgeStyle;rounded=0;orthogonalLoop=1;jettySize=auto;html=1;entryX=0.5;entryY=0;entryDx=0;entryDy=0;" parent="WIyWlLk6GJQsqaUBKTNV-1" source="zxdTFHH6Y_w0BkijJiQj-14" target="zxdTFHH6Y_w0BkijJiQj-8" edge="1">
          <mxGeometry relative="1" as="geometry">
            <mxPoint x="143.48000000000002" y="370" as="sourcePoint" />
            <mxPoint x="143.48000000000002" y="470" as="targetPoint" />
          </mxGeometry>
        </mxCell>
        <mxCell id="zxdTFHH6Y_w0BkijJiQj-25" value="是" style="edgeLabel;html=1;align=center;verticalAlign=middle;resizable=0;points=[];" parent="zxdTFHH6Y_w0BkijJiQj-23" vertex="1" connectable="0">
          <mxGeometry relative="1" as="geometry">
            <mxPoint as="offset" />
          </mxGeometry>
        </mxCell>
        <mxCell id="zxdTFHH6Y_w0BkijJiQj-8" value="进入下一关" style="rounded=1;whiteSpace=wrap;html=1;fontSize=12;glass=0;strokeWidth=1;shadow=0;" parent="WIyWlLk6GJQsqaUBKTNV-1" vertex="1">
          <mxGeometry x="98.48000000000002" y="430" width="90" height="40" as="geometry" />
        </mxCell>
        <mxCell id="zxdTFHH6Y_w0BkijJiQj-26" value="触发" style="swimlane;startSize=0;fontStyle=0;fontSize=11;labelPosition=center;verticalLabelPosition=bottom;align=center;verticalAlign=top;" parent="WIyWlLk6GJQsqaUBKTNV-1" vertex="1">
          <mxGeometry x="500" y="270" width="200" height="180" as="geometry" />
        </mxCell>
        <mxCell id="zxdTFHH6Y_w0BkijJiQj-30" style="edgeStyle=orthogonalEdgeStyle;rounded=0;orthogonalLoop=1;jettySize=auto;html=1;entryX=0.5;entryY=0;entryDx=0;entryDy=0;" parent="zxdTFHH6Y_w0BkijJiQj-26" source="zxdTFHH6Y_w0BkijJiQj-27" target="zxdTFHH6Y_w0BkijJiQj-28" edge="1">
          <mxGeometry relative="1" as="geometry" />
        </mxCell>
        <mxCell id="zxdTFHH6Y_w0BkijJiQj-31" value="是" style="edgeLabel;html=1;align=center;verticalAlign=middle;resizable=0;points=[];" parent="zxdTFHH6Y_w0BkijJiQj-30" vertex="1" connectable="0">
          <mxGeometry relative="1" as="geometry">
            <mxPoint as="offset" />
          </mxGeometry>
        </mxCell>
        <mxCell id="zxdTFHH6Y_w0BkijJiQj-27" value="玩家生命值&amp;lt;=0？" style="rhombus;whiteSpace=wrap;html=1;shadow=0;fontFamily=Helvetica;fontSize=12;align=center;strokeWidth=1;spacing=6;spacingTop=-4;" parent="zxdTFHH6Y_w0BkijJiQj-26" vertex="1">
          <mxGeometry x="17.5" y="20" width="165" height="60" as="geometry" />
        </mxCell>
        <mxCell id="zxdTFHH6Y_w0BkijJiQj-28" value="死亡" style="rounded=0;whiteSpace=wrap;html=1;" parent="zxdTFHH6Y_w0BkijJiQj-26" vertex="1">
          <mxGeometry x="60" y="120" width="80" height="40" as="geometry" />
        </mxCell>
        <mxCell id="zxdTFHH6Y_w0BkijJiQj-32" style="edgeStyle=orthogonalEdgeStyle;rounded=0;orthogonalLoop=1;jettySize=auto;html=1;entryX=1;entryY=0.5;entryDx=0;entryDy=0;" parent="WIyWlLk6GJQsqaUBKTNV-1" source="zxdTFHH6Y_w0BkijJiQj-28" target="zxdTFHH6Y_w0BkijJiQj-21" edge="1">
          <mxGeometry relative="1" as="geometry">
            <Array as="points">
              <mxPoint x="740" y="410" />
              <mxPoint x="740" y="170" />
            </Array>
          </mxGeometry>
        </mxCell>
      </root>
    </mxGraphModel>
  </diagram>
  <diagram id="r4Eodyt_nmxu7Ykw8ElW" name="UIFlowChart">
    <mxGraphModel dx="2514" dy="1040" grid="1" gridSize="10" guides="1" tooltips="1" connect="1" arrows="1" fold="1" page="1" pageScale="1" pageWidth="827" pageHeight="1169" math="0" shadow="0">
      <root>
        <mxCell id="0" />
        <mxCell id="1" parent="0" />
        <mxCell id="PyDSfK3ZNdWcAXNBF8-8-27" style="edgeStyle=orthogonalEdgeStyle;rounded=0;orthogonalLoop=1;jettySize=auto;html=1;entryX=0.5;entryY=0;entryDx=0;entryDy=0;" parent="1" source="WNrXcy--keUnmAdDD621-2" target="PyDSfK3ZNdWcAXNBF8-8-22" edge="1">
          <mxGeometry relative="1" as="geometry" />
        </mxCell>
        <mxCell id="WNrXcy--keUnmAdDD621-2" value="进入游戏" style="rounded=1;whiteSpace=wrap;html=1;fontSize=12;glass=0;strokeWidth=1;shadow=0;" parent="1" vertex="1">
          <mxGeometry x="275" y="30" width="90" height="40" as="geometry" />
        </mxCell>
        <mxCell id="PyDSfK3ZNdWcAXNBF8-8-4" style="edgeStyle=orthogonalEdgeStyle;rounded=0;orthogonalLoop=1;jettySize=auto;html=1;exitX=0.5;exitY=1;exitDx=0;exitDy=0;entryX=0.5;entryY=0;entryDx=0;entryDy=0;" parent="1" source="WNrXcy--keUnmAdDD621-4" target="yxokMU3xHJ2v-9tgH5J8-1" edge="1">
          <mxGeometry relative="1" as="geometry">
            <mxPoint x="270" y="180" as="targetPoint" />
          </mxGeometry>
        </mxCell>
        <mxCell id="PyDSfK3ZNdWcAXNBF8-8-13" style="edgeStyle=orthogonalEdgeStyle;rounded=0;orthogonalLoop=1;jettySize=auto;html=1;entryX=0.5;entryY=0;entryDx=0;entryDy=0;" parent="1" source="WNrXcy--keUnmAdDD621-9" target="PyDSfK3ZNdWcAXNBF8-8-12" edge="1">
          <mxGeometry relative="1" as="geometry" />
        </mxCell>
        <mxCell id="PyDSfK3ZNdWcAXNBF8-8-10" style="edgeStyle=orthogonalEdgeStyle;rounded=0;orthogonalLoop=1;jettySize=auto;html=1;entryX=0.5;entryY=0;entryDx=0;entryDy=0;" parent="1" source="PyDSfK3ZNdWcAXNBF8-8-50" target="PyDSfK3ZNdWcAXNBF8-8-9" edge="1">
          <mxGeometry relative="1" as="geometry" />
        </mxCell>
        <mxCell id="PyDSfK3ZNdWcAXNBF8-8-52" value="是" style="edgeLabel;html=1;align=center;verticalAlign=middle;resizable=0;points=[];" parent="PyDSfK3ZNdWcAXNBF8-8-10" vertex="1" connectable="0">
          <mxGeometry relative="1" as="geometry">
            <mxPoint as="offset" />
          </mxGeometry>
        </mxCell>
        <mxCell id="PyDSfK3ZNdWcAXNBF8-8-3" value="退出" style="rounded=0;whiteSpace=wrap;html=1;" parent="1" vertex="1">
          <mxGeometry x="585" y="120" width="80" height="40" as="geometry" />
        </mxCell>
        <mxCell id="PyDSfK3ZNdWcAXNBF8-8-9" value="退出游戏" style="rounded=1;whiteSpace=wrap;html=1;fontSize=12;glass=0;strokeWidth=1;shadow=0;" parent="1" vertex="1">
          <mxGeometry x="580" y="270" width="90" height="40" as="geometry" />
        </mxCell>
        <mxCell id="PyDSfK3ZNdWcAXNBF8-8-15" style="edgeStyle=orthogonalEdgeStyle;rounded=0;orthogonalLoop=1;jettySize=auto;html=1;entryX=0.5;entryY=0;entryDx=0;entryDy=0;" parent="1" source="PyDSfK3ZNdWcAXNBF8-8-11" target="PyDSfK3ZNdWcAXNBF8-8-14" edge="1">
          <mxGeometry relative="1" as="geometry" />
        </mxCell>
        <mxCell id="PyDSfK3ZNdWcAXNBF8-8-12" value="游戏中" style="shape=process;whiteSpace=wrap;html=1;backgroundOutline=1;" parent="1" vertex="1">
          <mxGeometry x="-35" y="190" width="90" height="40" as="geometry" />
        </mxCell>
        <mxCell id="PyDSfK3ZNdWcAXNBF8-8-18" style="edgeStyle=orthogonalEdgeStyle;rounded=0;orthogonalLoop=1;jettySize=auto;html=1;entryX=0.5;entryY=0;entryDx=0;entryDy=0;exitX=0.5;exitY=1;exitDx=0;exitDy=0;" parent="1" source="PyDSfK3ZNdWcAXNBF8-8-14" target="PyDSfK3ZNdWcAXNBF8-8-28" edge="1">
          <mxGeometry relative="1" as="geometry">
            <mxPoint x="-99.99999999999977" y="420" as="targetPoint" />
          </mxGeometry>
        </mxCell>
        <mxCell id="PyDSfK3ZNdWcAXNBF8-8-14" value="玩家能否暂停？" style="rhombus;whiteSpace=wrap;html=1;shadow=0;fontFamily=Helvetica;fontSize=12;align=center;strokeWidth=1;spacing=6;spacingTop=-4;" parent="1" vertex="1">
          <mxGeometry x="-72.5" y="330" width="165" height="60" as="geometry" />
        </mxCell>
        <mxCell id="PyDSfK3ZNdWcAXNBF8-8-16" value="" style="edgeStyle=orthogonalEdgeStyle;rounded=0;orthogonalLoop=1;jettySize=auto;html=1;entryX=0.5;entryY=0;entryDx=0;entryDy=0;" parent="1" source="PyDSfK3ZNdWcAXNBF8-8-12" target="PyDSfK3ZNdWcAXNBF8-8-11" edge="1">
          <mxGeometry relative="1" as="geometry">
            <mxPoint x="18.75" y="230" as="sourcePoint" />
            <mxPoint x="18.75" y="320" as="targetPoint" />
          </mxGeometry>
        </mxCell>
        <mxCell id="PyDSfK3ZNdWcAXNBF8-8-11" value="暂停" style="rounded=0;whiteSpace=wrap;html=1;" parent="1" vertex="1">
          <mxGeometry x="-30" y="260" width="80" height="40" as="geometry" />
        </mxCell>
        <mxCell id="PyDSfK3ZNdWcAXNBF8-8-22" value="" style="swimlane;startSize=0;" parent="1" vertex="1">
          <mxGeometry x="-50" y="110" width="740" height="60" as="geometry" />
        </mxCell>
        <mxCell id="WNrXcy--keUnmAdDD621-4" value="设置" style="rounded=0;whiteSpace=wrap;html=1;" parent="PyDSfK3ZNdWcAXNBF8-8-22" vertex="1">
          <mxGeometry x="330" y="10" width="80" height="40" as="geometry" />
        </mxCell>
        <mxCell id="WNrXcy--keUnmAdDD621-9" value="开始游戏" style="rounded=0;whiteSpace=wrap;html=1;" parent="PyDSfK3ZNdWcAXNBF8-8-22" vertex="1">
          <mxGeometry x="20" y="10" width="80" height="40" as="geometry" />
        </mxCell>
        <mxCell id="PyDSfK3ZNdWcAXNBF8-8-28" value="" style="swimlane;startSize=0;" parent="1" vertex="1">
          <mxGeometry x="-79.22" y="410" width="178.44" height="120" as="geometry" />
        </mxCell>
        <mxCell id="PyDSfK3ZNdWcAXNBF8-8-29" value="设置" style="rounded=0;whiteSpace=wrap;html=1;" parent="PyDSfK3ZNdWcAXNBF8-8-28" vertex="1">
          <mxGeometry x="49.22" y="10" width="80" height="40" as="geometry" />
        </mxCell>
        <mxCell id="PyDSfK3ZNdWcAXNBF8-8-30" value="返回到主界面" style="rounded=0;whiteSpace=wrap;html=1;" parent="PyDSfK3ZNdWcAXNBF8-8-28" vertex="1">
          <mxGeometry x="49.22" y="70" width="80" height="40" as="geometry" />
        </mxCell>
        <mxCell id="PyDSfK3ZNdWcAXNBF8-8-33" style="edgeStyle=orthogonalEdgeStyle;rounded=0;orthogonalLoop=1;jettySize=auto;html=1;entryX=0;entryY=0.5;entryDx=0;entryDy=0;exitX=1;exitY=0.5;exitDx=0;exitDy=0;" parent="1" source="PyDSfK3ZNdWcAXNBF8-8-29" target="yxokMU3xHJ2v-9tgH5J8-1" edge="1">
          <mxGeometry relative="1" as="geometry">
            <Array as="points">
              <mxPoint x="130" y="440" />
              <mxPoint x="130" y="500" />
            </Array>
            <mxPoint x="220" y="405" as="targetPoint" />
          </mxGeometry>
        </mxCell>
        <mxCell id="PyDSfK3ZNdWcAXNBF8-8-37" style="edgeStyle=orthogonalEdgeStyle;rounded=0;orthogonalLoop=1;jettySize=auto;html=1;entryX=0;entryY=0.5;entryDx=0;entryDy=0;exitX=0;exitY=0.5;exitDx=0;exitDy=0;" parent="1" source="PyDSfK3ZNdWcAXNBF8-8-35" target="PyDSfK3ZNdWcAXNBF8-8-28" edge="1">
          <mxGeometry relative="1" as="geometry" />
        </mxCell>
        <mxCell id="PyDSfK3ZNdWcAXNBF8-8-38" value="否" style="edgeLabel;html=1;align=center;verticalAlign=middle;resizable=0;points=[];" parent="PyDSfK3ZNdWcAXNBF8-8-37" vertex="1" connectable="0">
          <mxGeometry relative="1" as="geometry">
            <mxPoint as="offset" />
          </mxGeometry>
        </mxCell>
        <mxCell id="PyDSfK3ZNdWcAXNBF8-8-39" style="edgeStyle=orthogonalEdgeStyle;rounded=0;orthogonalLoop=1;jettySize=auto;html=1;entryX=0;entryY=0.5;entryDx=0;entryDy=0;exitX=0.5;exitY=1;exitDx=0;exitDy=0;" parent="1" source="PyDSfK3ZNdWcAXNBF8-8-35" target="PyDSfK3ZNdWcAXNBF8-8-22" edge="1">
          <mxGeometry relative="1" as="geometry">
            <mxPoint x="40" y="570" as="sourcePoint" />
            <mxPoint x="-79.99999999999977" y="140.0000000000001" as="targetPoint" />
            <Array as="points">
              <mxPoint x="10" y="640" />
              <mxPoint x="-180" y="640" />
              <mxPoint x="-180" y="140" />
            </Array>
          </mxGeometry>
        </mxCell>
        <mxCell id="PyDSfK3ZNdWcAXNBF8-8-40" value="是" style="edgeLabel;html=1;align=center;verticalAlign=middle;resizable=0;points=[];" parent="PyDSfK3ZNdWcAXNBF8-8-39" vertex="1" connectable="0">
          <mxGeometry relative="1" as="geometry">
            <mxPoint as="offset" />
          </mxGeometry>
        </mxCell>
        <mxCell id="PyDSfK3ZNdWcAXNBF8-8-35" value="退出将失去一切进度，是否退出？" style="rhombus;whiteSpace=wrap;html=1;shadow=0;fontFamily=Helvetica;fontSize=12;align=center;strokeWidth=1;spacing=6;spacingTop=-4;" parent="1" vertex="1">
          <mxGeometry x="-102.81" y="560" width="225.62" height="60" as="geometry" />
        </mxCell>
        <mxCell id="PyDSfK3ZNdWcAXNBF8-8-34" style="edgeStyle=orthogonalEdgeStyle;rounded=0;orthogonalLoop=1;jettySize=auto;html=1;entryX=0.5;entryY=0;entryDx=0;entryDy=0;" parent="1" source="PyDSfK3ZNdWcAXNBF8-8-30" target="PyDSfK3ZNdWcAXNBF8-8-35" edge="1">
          <mxGeometry relative="1" as="geometry">
            <mxPoint x="70" y="570" as="targetPoint" />
          </mxGeometry>
        </mxCell>
        <mxCell id="PyDSfK3ZNdWcAXNBF8-8-51" value="" style="edgeStyle=orthogonalEdgeStyle;rounded=0;orthogonalLoop=1;jettySize=auto;html=1;entryX=0.5;entryY=0;entryDx=0;entryDy=0;" parent="1" source="PyDSfK3ZNdWcAXNBF8-8-3" target="PyDSfK3ZNdWcAXNBF8-8-50" edge="1">
          <mxGeometry relative="1" as="geometry">
            <mxPoint x="625" y="160" as="sourcePoint" />
            <mxPoint x="625" y="270" as="targetPoint" />
          </mxGeometry>
        </mxCell>
        <mxCell id="PyDSfK3ZNdWcAXNBF8-8-53" style="edgeStyle=orthogonalEdgeStyle;rounded=0;orthogonalLoop=1;jettySize=auto;html=1;entryX=1;entryY=0.5;entryDx=0;entryDy=0;exitX=1;exitY=0.5;exitDx=0;exitDy=0;" parent="1" source="PyDSfK3ZNdWcAXNBF8-8-50" target="PyDSfK3ZNdWcAXNBF8-8-22" edge="1">
          <mxGeometry relative="1" as="geometry" />
        </mxCell>
        <mxCell id="PyDSfK3ZNdWcAXNBF8-8-54" value="否" style="edgeLabel;html=1;align=center;verticalAlign=middle;resizable=0;points=[];" parent="PyDSfK3ZNdWcAXNBF8-8-53" vertex="1" connectable="0">
          <mxGeometry relative="1" as="geometry">
            <mxPoint as="offset" />
          </mxGeometry>
        </mxCell>
        <mxCell id="PyDSfK3ZNdWcAXNBF8-8-50" value="是否退出？" style="rhombus;whiteSpace=wrap;html=1;shadow=0;fontFamily=Helvetica;fontSize=12;align=center;strokeWidth=1;spacing=6;spacingTop=-4;" parent="1" vertex="1">
          <mxGeometry x="526.09" y="190" width="197.81" height="40" as="geometry" />
        </mxCell>
        <mxCell id="yxokMU3xHJ2v-9tgH5J8-1" value="" style="swimlane;startSize=0;" vertex="1" parent="1">
          <mxGeometry x="160" y="190" width="320" height="620" as="geometry" />
        </mxCell>
        <mxCell id="yxokMU3xHJ2v-9tgH5J8-2" value="玩家是否通关？" style="rhombus;whiteSpace=wrap;html=1;shadow=0;fontFamily=Helvetica;fontSize=12;align=center;strokeWidth=1;spacing=6;spacingTop=-4;" vertex="1" parent="yxokMU3xHJ2v-9tgH5J8-1">
          <mxGeometry x="77.5" y="390" width="165" height="60" as="geometry" />
        </mxCell>
        <mxCell id="yxokMU3xHJ2v-9tgH5J8-3" value="Credits" style="rounded=0;whiteSpace=wrap;html=1;" vertex="1" parent="yxokMU3xHJ2v-9tgH5J8-1">
          <mxGeometry x="120" y="490" width="80" height="40" as="geometry" />
        </mxCell>
        <mxCell id="yxokMU3xHJ2v-9tgH5J8-4" style="edgeStyle=orthogonalEdgeStyle;rounded=0;orthogonalLoop=1;jettySize=auto;html=1;" edge="1" parent="yxokMU3xHJ2v-9tgH5J8-1" source="yxokMU3xHJ2v-9tgH5J8-2" target="yxokMU3xHJ2v-9tgH5J8-3">
          <mxGeometry relative="1" as="geometry" />
        </mxCell>
        <mxCell id="yxokMU3xHJ2v-9tgH5J8-5" value="是" style="edgeLabel;html=1;align=center;verticalAlign=middle;resizable=0;points=[];" vertex="1" connectable="0" parent="yxokMU3xHJ2v-9tgH5J8-4">
          <mxGeometry relative="1" as="geometry">
            <mxPoint as="offset" />
          </mxGeometry>
        </mxCell>
        <mxCell id="yxokMU3xHJ2v-9tgH5J8-6" value="语言" style="rounded=0;whiteSpace=wrap;html=1;" vertex="1" parent="yxokMU3xHJ2v-9tgH5J8-1">
          <mxGeometry x="30" y="20" width="80" height="40" as="geometry" />
        </mxCell>
        <mxCell id="yxokMU3xHJ2v-9tgH5J8-7" value="音乐音量" style="rounded=0;whiteSpace=wrap;html=1;" vertex="1" parent="yxokMU3xHJ2v-9tgH5J8-1">
          <mxGeometry x="30" y="80" width="80" height="40" as="geometry" />
        </mxCell>
        <mxCell id="yxokMU3xHJ2v-9tgH5J8-8" value="音效音量" style="rounded=0;whiteSpace=wrap;html=1;" vertex="1" parent="yxokMU3xHJ2v-9tgH5J8-1">
          <mxGeometry x="30" y="140" width="80" height="40" as="geometry" />
        </mxCell>
        <mxCell id="yxokMU3xHJ2v-9tgH5J8-9" value="人物音量" style="rounded=0;whiteSpace=wrap;html=1;" vertex="1" parent="yxokMU3xHJ2v-9tgH5J8-1">
          <mxGeometry x="30" y="200" width="80" height="40" as="geometry" />
        </mxCell>
        <mxCell id="yxokMU3xHJ2v-9tgH5J8-10" value="&amp;lt;&lt;span style=&quot;white-space: pre;&quot;&gt;&#x9;&lt;/span&gt;&lt;span style=&quot;border-color: var(--border-color);&quot;&gt;&lt;span style=&quot;white-space: pre;&quot;&gt;&amp;nbsp;&amp;nbsp;&amp;nbsp;&amp;nbsp;&lt;/span&gt;&lt;/span&gt;&lt;span style=&quot;&quot;&gt;English&lt;/span&gt;&lt;span style=&quot;border-color: var(--border-color);&quot;&gt;&lt;span style=&quot;white-space: pre;&quot;&gt;&amp;nbsp;&amp;nbsp;&amp;nbsp;&amp;nbsp;&lt;span style=&quot;white-space: pre;&quot;&gt;&#x9;&lt;/span&gt;&lt;/span&gt;&lt;/span&gt;&lt;span style=&quot;&quot;&gt;&amp;gt;&lt;/span&gt;" style="text;html=1;align=center;verticalAlign=middle;resizable=0;points=[];autosize=1;strokeColor=none;fillColor=none;" vertex="1" parent="yxokMU3xHJ2v-9tgH5J8-1">
          <mxGeometry x="164" y="25" width="140" height="30" as="geometry" />
        </mxCell>
        <mxCell id="yxokMU3xHJ2v-9tgH5J8-11" value="|&amp;nbsp; |&amp;nbsp; |&amp;nbsp; |&amp;nbsp; |&amp;nbsp; |&amp;nbsp; |&amp;nbsp; |&amp;nbsp; |&amp;nbsp; |" style="text;html=1;align=center;verticalAlign=middle;resizable=0;points=[];autosize=1;strokeColor=none;fillColor=none;" vertex="1" parent="yxokMU3xHJ2v-9tgH5J8-1">
          <mxGeometry x="179" y="85" width="110" height="30" as="geometry" />
        </mxCell>
        <mxCell id="yxokMU3xHJ2v-9tgH5J8-12" value="|&amp;nbsp; |&amp;nbsp; |&amp;nbsp; |&amp;nbsp; |&amp;nbsp; |&amp;nbsp; |&amp;nbsp; |&amp;nbsp; |&amp;nbsp; |" style="text;html=1;align=center;verticalAlign=middle;resizable=0;points=[];autosize=1;strokeColor=none;fillColor=none;" vertex="1" parent="yxokMU3xHJ2v-9tgH5J8-1">
          <mxGeometry x="179" y="145" width="110" height="30" as="geometry" />
        </mxCell>
        <mxCell id="yxokMU3xHJ2v-9tgH5J8-13" value="|&amp;nbsp; |&amp;nbsp; |&amp;nbsp; |&amp;nbsp; |&amp;nbsp; |&amp;nbsp; |&amp;nbsp; |&amp;nbsp; |&amp;nbsp; |" style="text;html=1;align=center;verticalAlign=middle;resizable=0;points=[];autosize=1;strokeColor=none;fillColor=none;" vertex="1" parent="yxokMU3xHJ2v-9tgH5J8-1">
          <mxGeometry x="179" y="205" width="110" height="30" as="geometry" />
        </mxCell>
        <mxCell id="yxokMU3xHJ2v-9tgH5J8-14" value="" style="swimlane;startSize=0;" vertex="1" parent="yxokMU3xHJ2v-9tgH5J8-1">
          <mxGeometry x="70" y="380" width="180" height="160" as="geometry" />
        </mxCell>
        <mxCell id="yxokMU3xHJ2v-9tgH5J8-15" value="计时器" style="rounded=0;whiteSpace=wrap;html=1;" vertex="1" parent="yxokMU3xHJ2v-9tgH5J8-1">
          <mxGeometry x="30" y="260" width="80" height="40" as="geometry" />
        </mxCell>
        <mxCell id="yxokMU3xHJ2v-9tgH5J8-16" value="返回" style="rounded=0;whiteSpace=wrap;html=1;" vertex="1" parent="yxokMU3xHJ2v-9tgH5J8-1">
          <mxGeometry x="120" y="560" width="80" height="40" as="geometry" />
        </mxCell>
        <mxCell id="yxokMU3xHJ2v-9tgH5J8-17" value="" style="rounded=0;whiteSpace=wrap;html=1;" vertex="1" parent="yxokMU3xHJ2v-9tgH5J8-1">
          <mxGeometry x="229" y="275" width="10" height="10" as="geometry" />
        </mxCell>
        <mxCell id="yxokMU3xHJ2v-9tgH5J8-18" value="✓" style="text;html=1;align=center;verticalAlign=middle;resizable=0;points=[];autosize=1;strokeColor=none;fillColor=none;" vertex="1" parent="yxokMU3xHJ2v-9tgH5J8-1">
          <mxGeometry x="219" y="265" width="30" height="30" as="geometry" />
        </mxCell>
        <mxCell id="yxokMU3xHJ2v-9tgH5J8-19" value="跳过剧情" style="rounded=0;whiteSpace=wrap;html=1;" vertex="1" parent="yxokMU3xHJ2v-9tgH5J8-1">
          <mxGeometry x="30" y="320" width="80" height="40" as="geometry" />
        </mxCell>
        <mxCell id="yxokMU3xHJ2v-9tgH5J8-20" value="" style="rounded=0;whiteSpace=wrap;html=1;" vertex="1" parent="yxokMU3xHJ2v-9tgH5J8-1">
          <mxGeometry x="229" y="335" width="10" height="10" as="geometry" />
        </mxCell>
      </root>
    </mxGraphModel>
  </diagram>
  <diagram id="mxV256Y9IoIK4-sMNIJm" name="Settings">
    <mxGraphModel dx="1434" dy="884" grid="1" gridSize="10" guides="1" tooltips="1" connect="1" arrows="1" fold="1" page="1" pageScale="1" pageWidth="827" pageHeight="1169" math="0" shadow="0">
      <root>
        <mxCell id="0" />
        <mxCell id="1" parent="0" />
        <mxCell id="8GZ39OHhYstosxdflwXg-1" value="" style="swimlane;startSize=0;" parent="1" vertex="1">
          <mxGeometry x="160" y="140" width="320" height="620" as="geometry" />
        </mxCell>
        <mxCell id="8GZ39OHhYstosxdflwXg-2" value="玩家是否通关？" style="rhombus;whiteSpace=wrap;html=1;shadow=0;fontFamily=Helvetica;fontSize=12;align=center;strokeWidth=1;spacing=6;spacingTop=-4;" parent="8GZ39OHhYstosxdflwXg-1" vertex="1">
          <mxGeometry x="77.5" y="390" width="165" height="60" as="geometry" />
        </mxCell>
        <mxCell id="8GZ39OHhYstosxdflwXg-3" value="Credits" style="rounded=0;whiteSpace=wrap;html=1;" parent="8GZ39OHhYstosxdflwXg-1" vertex="1">
          <mxGeometry x="120" y="490" width="80" height="40" as="geometry" />
        </mxCell>
        <mxCell id="8GZ39OHhYstosxdflwXg-4" style="edgeStyle=orthogonalEdgeStyle;rounded=0;orthogonalLoop=1;jettySize=auto;html=1;" parent="8GZ39OHhYstosxdflwXg-1" source="8GZ39OHhYstosxdflwXg-2" target="8GZ39OHhYstosxdflwXg-3" edge="1">
          <mxGeometry relative="1" as="geometry" />
        </mxCell>
        <mxCell id="8GZ39OHhYstosxdflwXg-5" value="是" style="edgeLabel;html=1;align=center;verticalAlign=middle;resizable=0;points=[];" parent="8GZ39OHhYstosxdflwXg-4" vertex="1" connectable="0">
          <mxGeometry relative="1" as="geometry">
            <mxPoint as="offset" />
          </mxGeometry>
        </mxCell>
        <mxCell id="8GZ39OHhYstosxdflwXg-7" value="语言" style="rounded=0;whiteSpace=wrap;html=1;" parent="8GZ39OHhYstosxdflwXg-1" vertex="1">
          <mxGeometry x="30" y="20" width="80" height="40" as="geometry" />
        </mxCell>
        <mxCell id="8GZ39OHhYstosxdflwXg-9" value="音乐音量" style="rounded=0;whiteSpace=wrap;html=1;" parent="8GZ39OHhYstosxdflwXg-1" vertex="1">
          <mxGeometry x="30" y="80" width="80" height="40" as="geometry" />
        </mxCell>
        <mxCell id="8GZ39OHhYstosxdflwXg-10" value="音效音量" style="rounded=0;whiteSpace=wrap;html=1;" parent="8GZ39OHhYstosxdflwXg-1" vertex="1">
          <mxGeometry x="30" y="140" width="80" height="40" as="geometry" />
        </mxCell>
        <mxCell id="8GZ39OHhYstosxdflwXg-11" value="人物音量" style="rounded=0;whiteSpace=wrap;html=1;" parent="8GZ39OHhYstosxdflwXg-1" vertex="1">
          <mxGeometry x="30" y="200" width="80" height="40" as="geometry" />
        </mxCell>
        <mxCell id="8GZ39OHhYstosxdflwXg-14" value="&amp;lt;&lt;span style=&quot;white-space: pre;&quot;&gt;&#x9;&lt;/span&gt;&lt;span style=&quot;border-color: var(--border-color);&quot;&gt;&lt;span style=&quot;white-space: pre;&quot;&gt;&amp;nbsp;&amp;nbsp;&amp;nbsp;&amp;nbsp;&lt;/span&gt;&lt;/span&gt;&lt;span style=&quot;&quot;&gt;English&lt;/span&gt;&lt;span style=&quot;border-color: var(--border-color);&quot;&gt;&lt;span style=&quot;white-space: pre;&quot;&gt;&amp;nbsp;&amp;nbsp;&amp;nbsp;&amp;nbsp;&lt;span style=&quot;white-space: pre;&quot;&gt;&#x9;&lt;/span&gt;&lt;/span&gt;&lt;/span&gt;&lt;span style=&quot;&quot;&gt;&amp;gt;&lt;/span&gt;" style="text;html=1;align=center;verticalAlign=middle;resizable=0;points=[];autosize=1;strokeColor=none;fillColor=none;" parent="8GZ39OHhYstosxdflwXg-1" vertex="1">
          <mxGeometry x="164" y="25" width="140" height="30" as="geometry" />
        </mxCell>
        <mxCell id="8GZ39OHhYstosxdflwXg-15" value="|&amp;nbsp; |&amp;nbsp; |&amp;nbsp; |&amp;nbsp; |&amp;nbsp; |&amp;nbsp; |&amp;nbsp; |&amp;nbsp; |&amp;nbsp; |" style="text;html=1;align=center;verticalAlign=middle;resizable=0;points=[];autosize=1;strokeColor=none;fillColor=none;" parent="8GZ39OHhYstosxdflwXg-1" vertex="1">
          <mxGeometry x="179" y="85" width="110" height="30" as="geometry" />
        </mxCell>
        <mxCell id="8GZ39OHhYstosxdflwXg-16" value="|&amp;nbsp; |&amp;nbsp; |&amp;nbsp; |&amp;nbsp; |&amp;nbsp; |&amp;nbsp; |&amp;nbsp; |&amp;nbsp; |&amp;nbsp; |" style="text;html=1;align=center;verticalAlign=middle;resizable=0;points=[];autosize=1;strokeColor=none;fillColor=none;" parent="8GZ39OHhYstosxdflwXg-1" vertex="1">
          <mxGeometry x="179" y="145" width="110" height="30" as="geometry" />
        </mxCell>
        <mxCell id="8GZ39OHhYstosxdflwXg-17" value="|&amp;nbsp; |&amp;nbsp; |&amp;nbsp; |&amp;nbsp; |&amp;nbsp; |&amp;nbsp; |&amp;nbsp; |&amp;nbsp; |&amp;nbsp; |" style="text;html=1;align=center;verticalAlign=middle;resizable=0;points=[];autosize=1;strokeColor=none;fillColor=none;" parent="8GZ39OHhYstosxdflwXg-1" vertex="1">
          <mxGeometry x="179" y="205" width="110" height="30" as="geometry" />
        </mxCell>
        <mxCell id="8GZ39OHhYstosxdflwXg-8" value="" style="swimlane;startSize=0;" parent="8GZ39OHhYstosxdflwXg-1" vertex="1">
          <mxGeometry x="70" y="380" width="180" height="160" as="geometry" />
        </mxCell>
        <mxCell id="tD6jGAmvgsRa2kcCbVXW-1" value="计时器" style="rounded=0;whiteSpace=wrap;html=1;" parent="8GZ39OHhYstosxdflwXg-1" vertex="1">
          <mxGeometry x="30" y="260" width="80" height="40" as="geometry" />
        </mxCell>
        <mxCell id="8GZ39OHhYstosxdflwXg-6" value="返回" style="rounded=0;whiteSpace=wrap;html=1;" parent="8GZ39OHhYstosxdflwXg-1" vertex="1">
          <mxGeometry x="120" y="560" width="80" height="40" as="geometry" />
        </mxCell>
        <mxCell id="tD6jGAmvgsRa2kcCbVXW-3" value="" style="rounded=0;whiteSpace=wrap;html=1;" parent="8GZ39OHhYstosxdflwXg-1" vertex="1">
          <mxGeometry x="229" y="275" width="10" height="10" as="geometry" />
        </mxCell>
        <mxCell id="tD6jGAmvgsRa2kcCbVXW-5" value="✓" style="text;html=1;align=center;verticalAlign=middle;resizable=0;points=[];autosize=1;strokeColor=none;fillColor=none;" parent="8GZ39OHhYstosxdflwXg-1" vertex="1">
          <mxGeometry x="219" y="265" width="30" height="30" as="geometry" />
        </mxCell>
        <mxCell id="tD6jGAmvgsRa2kcCbVXW-6" value="跳过剧情" style="rounded=0;whiteSpace=wrap;html=1;" parent="8GZ39OHhYstosxdflwXg-1" vertex="1">
          <mxGeometry x="30" y="320" width="80" height="40" as="geometry" />
        </mxCell>
        <mxCell id="tD6jGAmvgsRa2kcCbVXW-8" value="" style="rounded=0;whiteSpace=wrap;html=1;" parent="8GZ39OHhYstosxdflwXg-1" vertex="1">
          <mxGeometry x="229" y="335" width="10" height="10" as="geometry" />
        </mxCell>
      </root>
    </mxGraphModel>
  </diagram>
</mxfile>
